<svg width="1400" height="390" viewBox="0 0 1400 390" fill="none" xmlns="http://www.w3.org/2000/svg" role="img" aria-labelledby="title desc">
  <title id="title">Raven AI</title><desc id="desc">Evidence-linked scientific intelligence in the Raven ecosystem.</desc>
  <defs>
    <radialGradient id="bg" cx="0" cy="0" r="1" gradientUnits="userSpaceOnUse" gradientTransform="translate(1140 42) rotate(142) scale(620 490)"><stop stop-color="#35131C"/><stop offset=".5" stop-color="#0D0D0F"/><stop offset="1" stop-color="#050505"/></radialGradient>
    <linearGradient id="red" x1="0" y1="0" x2="1" y2="1"><stop stop-color="#F04460"/><stop offset="1" stop-color="#8A1528"/></linearGradient>
    <linearGradient id="gold" x1="0" y1="0" x2="1" y2="1"><stop stop-color="#E7D3AF"/><stop offset="1" stop-color="#756347"/></linearGradient>
    <pattern id="grid" width="38" height="38" patternUnits="userSpaceOnUse"><path d="M38 0H0V38" stroke="#FFFFFF" stroke-opacity=".035"/></pattern>
  </defs>
  <rect width="1400" height="390" rx="28" fill="url(#bg)"/><rect width="1400" height="390" rx="28" fill="url(#grid)"/><rect x="1" y="1" width="1398" height="388" rx="27" stroke="#FFFFFF" stroke-opacity=".08"/>
  <text x="78" y="78" fill="#C8273F" font-family="ui-monospace, monospace" font-size="13" letter-spacing="4">RAVEN ECOSYSTEM / SCIENTIFIC INTELLIGENCE CORE</text>
  <text x="78" y="174" fill="#F4EFE7" font-family="Georgia, serif" font-size="72" font-weight="600">Raven AI</text>
  <text x="80" y="225" fill="#C9AD7D" font-family="Avenir Next, Segoe UI, Arial, sans-serif" font-size="27">Evidence-linked scientific intelligence.</text>
  <line x1="80" y1="260" x2="695" y2="260" stroke="url(#red)" stroke-width="3"/>
  <text x="80" y="303" fill="#8F8A83" font-family="ui-monospace, monospace" font-size="15" letter-spacing="1">PROVENANCE  ·  TOKEN ECONOMY  ·  SCIENTIFIC GATES</text>
  <g transform="translate(1010 48)">
    <circle cx="150" cy="145" r="124" stroke="#C9AD7D" stroke-opacity=".14"/><circle cx="150" cy="145" r="68" fill="#09090A" stroke="#C8273F" stroke-opacity=".7"/>
    <circle cx="150" cy="145" r="8" fill="#F04460"/>
    <g fill="#C9AD7D"><circle cx="54" cy="83" r="6"/><circle cx="244" cy="72" r="6"/><circle cx="258" cy="208" r="6"/><circle cx="74" cy="230" r="6"/></g>
    <g stroke="url(#gold)" stroke-opacity=".48"><path d="M59 86L139 137"/><path d="M239 76L160 136"/><path d="M252 204L161 153"/><path d="M79 226L140 154"/></g>
    <path d="M150 77C201 99 208 154 173 187C153 205 125 200 105 181C71 148 82 102 150 77Z" fill="url(#red)" fill-opacity=".34"/>
    <text x="150" y="311" text-anchor="middle" fill="#8F8A83" font-family="ui-monospace, monospace" font-size="11" letter-spacing="2">ACTIVE RESEARCH PLATFORM</text>
  </g>
</svg>
